<svg xmlns="http://www.w3.org/2000/svg" version="1.1" xmlns:xlink="http://www.w3.org/1999/xlink" xmlns:svgjs="http://svgjs.com/svgjs" width="1300" height="2600" preserveAspectRatio="none" viewBox="0 0 1300 2600"><g mask="url(&quot;#SvgjsMask1706&quot;)" fill="none"><rect width="1300" height="2600" x="0" y="0" fill="url(#SvgjsLinearGradient1707)"></rect><path d="M63.45 381.75L98.09 401.75L98.09 441.75L63.45 461.75L28.81 441.75L28.81 401.75zM63.45 621.75L98.09 641.75L98.09 681.75L63.45 701.75L28.81 681.75L28.81 641.75zM63.45 1101.75L98.09 1121.75L98.09 1161.75L63.45 1181.75L28.81 1161.75L28.81 1121.75zM63.45 1221.75L98.09 1241.75L98.09 1281.75L63.45 1301.75L28.81 1281.75L28.81 1241.75zM63.45 1341.75L98.09 1361.75L98.09 1401.75L63.45 1421.75L28.81 1401.75L28.81 1361.75zM63.45 1461.75L98.09 1481.75L98.09 1521.75L63.45 1541.75L28.81 1521.75L28.81 1481.75zM28.81 2001.75L63.45 2021.75L63.45 2061.75L28.81 2081.75L-5.83 2061.75L-5.83 2021.75zM132.74 261.75L167.38 281.75L167.38 321.75L132.74 341.75L98.09 321.75L98.09 281.75zM132.74 741.75L167.38 761.75L167.38 801.75L132.74 821.75L98.09 801.75L98.09 761.75zM132.74 861.75L167.38 881.75L167.38 921.75L132.74 941.75L98.09 921.75L98.09 881.75zM132.74 2061.75L167.38 2081.75L167.38 2121.75L132.74 2141.75L98.09 2121.75L98.09 2081.75zM132.74 2301.75L167.38 2321.75L167.38 2361.75L132.74 2381.75L98.09 2361.75L98.09 2321.75zM167.38 -38.25L202.02 -18.25L202.02 21.75L167.38 41.75L132.74 21.75L132.74 -18.25zM202.02 1581.75L236.66 1601.75L236.66 1641.75L202.02 1661.75L167.38 1641.75L167.38 1601.75zM167.38 2121.75L202.02 2141.75L202.02 2181.75L167.38 2201.75L132.74 2181.75L132.74 2141.75zM202.02 2421.75L236.66 2441.75L236.66 2481.75L202.02 2501.75L167.38 2481.75L167.38 2441.75zM271.3 21.75L305.95 41.75L305.95 81.75L271.3 101.75L236.66 81.75L236.66 41.75zM236.66 321.75L271.3 341.75L271.3 381.75L236.66 401.75L202.02 381.75L202.02 341.75zM236.66 561.75L271.3 581.75L271.3 621.75L236.66 641.75L202.02 621.75L202.02 581.75zM236.66 921.75L271.3 941.75L271.3 981.75L236.66 1001.75L202.02 981.75L202.02 941.75zM271.3 1101.75L305.95 1121.75L305.95 1161.75L271.3 1181.75L236.66 1161.75L236.66 1121.75zM236.66 1641.75L271.3 1661.75L271.3 1701.75L236.66 1721.75L202.02 1701.75L202.02 1661.75zM271.3 2421.75L305.95 2441.75L305.95 2481.75L271.3 2501.75L236.66 2481.75L236.66 2441.75zM236.66 2481.75L271.3 2501.75L271.3 2541.75L236.66 2561.75L202.02 2541.75L202.02 2501.75zM340.59 141.75L375.23 161.75L375.23 201.75L340.59 221.75L305.95 201.75L305.95 161.75zM305.95 201.75L340.59 221.75L340.59 261.75L305.95 281.75L271.3 261.75L271.3 221.75zM305.95 1281.75L340.59 1301.75L340.59 1341.75L305.95 1361.75L271.3 1341.75L271.3 1301.75zM340.59 1701.75L375.23 1721.75L375.23 1761.75L340.59 1781.75L305.95 1761.75L305.95 1721.75zM409.87 381.75L444.51 401.75L444.51 441.75L409.87 461.75L375.23 441.75L375.23 401.75zM409.87 621.75L444.51 641.75L444.51 681.75L409.87 701.75L375.23 681.75L375.23 641.75zM375.23 681.75L409.87 701.75L409.87 741.75L375.23 761.75L340.59 741.75L340.59 701.75zM409.87 741.75L444.51 761.75L444.51 801.75L409.87 821.75L375.23 801.75L375.23 761.75zM409.87 1101.75L444.51 1121.75L444.51 1161.75L409.87 1181.75L375.23 1161.75L375.23 1121.75zM375.23 1401.75L409.87 1421.75L409.87 1461.75L375.23 1481.75L340.59 1461.75L340.59 1421.75zM409.87 1941.75L444.51 1961.75L444.51 2001.75L409.87 2021.75L375.23 2001.75L375.23 1961.75zM375.23 2001.75L409.87 2021.75L409.87 2061.75L375.23 2081.75L340.59 2061.75L340.59 2021.75zM409.87 2061.75L444.51 2081.75L444.51 2121.75L409.87 2141.75L375.23 2121.75L375.23 2081.75zM409.87 2421.75L444.51 2441.75L444.51 2481.75L409.87 2501.75L375.23 2481.75L375.23 2441.75zM444.51 321.75L479.16 341.75L479.16 381.75L444.51 401.75L409.87 381.75L409.87 341.75zM479.16 621.75L513.8 641.75L513.8 681.75L479.16 701.75L444.51 681.75L444.51 641.75zM444.51 681.75L479.16 701.75L479.16 741.75L444.51 761.75L409.87 741.75L409.87 701.75zM479.16 1821.75L513.8 1841.75L513.8 1881.75L479.16 1901.75L444.51 1881.75L444.51 1841.75zM479.16 2061.75L513.8 2081.75L513.8 2121.75L479.16 2141.75L444.51 2121.75L444.51 2081.75zM444.51 2481.75L479.16 2501.75L479.16 2541.75L444.51 2561.75L409.87 2541.75L409.87 2501.75zM513.8 -38.25L548.44 -18.25L548.44 21.75L513.8 41.75L479.16 21.75L479.16 -18.25zM513.8 321.75L548.44 341.75L548.44 381.75L513.8 401.75L479.16 381.75L479.16 341.75zM513.8 801.75L548.44 821.75L548.44 861.75L513.8 881.75L479.16 861.75L479.16 821.75zM548.44 2061.75L583.08 2081.75L583.08 2121.75L548.44 2141.75L513.8 2121.75L513.8 2081.75zM548.44 2181.75L583.08 2201.75L583.08 2241.75L548.44 2261.75L513.8 2241.75L513.8 2201.75zM513.8 2361.75L548.44 2381.75L548.44 2421.75L513.8 2441.75L479.16 2421.75L479.16 2381.75zM513.8 2481.75L548.44 2501.75L548.44 2541.75L513.8 2561.75L479.16 2541.75L479.16 2501.75zM583.08 201.75L617.72 221.75L617.72 261.75L583.08 281.75L548.44 261.75L548.44 221.75zM583.08 321.75L617.72 341.75L617.72 381.75L583.08 401.75L548.44 381.75L548.44 341.75zM583.08 801.75L617.72 821.75L617.72 861.75L583.08 881.75L548.44 861.75L548.44 821.75zM617.72 1101.75L652.37 1121.75L652.37 1161.75L617.72 1181.75L583.08 1161.75L583.08 1121.75zM617.72 1821.75L652.37 1841.75L652.37 1881.75L617.72 1901.75L583.08 1881.75L583.08 1841.75zM583.08 2361.75L617.72 2381.75L617.72 2421.75L583.08 2441.75L548.44 2421.75L548.44 2381.75zM652.37 321.75L687.01 341.75L687.01 381.75L652.37 401.75L617.72 381.75L617.72 341.75zM687.01 741.75L721.65 761.75L721.65 801.75L687.01 821.75L652.37 801.75L652.37 761.75zM687.01 1341.75L721.65 1361.75L721.65 1401.75L687.01 1421.75L652.37 1401.75L652.37 1361.75zM687.01 2061.75L721.65 2081.75L721.65 2121.75L687.01 2141.75L652.37 2121.75L652.37 2081.75zM652.37 2481.75L687.01 2501.75L687.01 2541.75L652.37 2561.75L617.72 2541.75L617.72 2501.75zM721.65 81.75L756.29 101.75L756.29 141.75L721.65 161.75L687.01 141.75L687.01 101.75zM721.65 441.75L756.29 461.75L756.29 501.75L721.65 521.75L687.01 501.75L687.01 461.75zM721.65 1041.75L756.29 1061.75L756.29 1101.75L721.65 1121.75L687.01 1101.75L687.01 1061.75zM756.29 1221.75L790.93 1241.75L790.93 1281.75L756.29 1301.75L721.65 1281.75L721.65 1241.75zM721.65 1401.75L756.29 1421.75L756.29 1461.75L721.65 1481.75L687.01 1461.75L687.01 1421.75zM721.65 2241.75L756.29 2261.75L756.29 2301.75L721.65 2321.75L687.01 2301.75L687.01 2261.75zM790.93 321.75L825.58 341.75L825.58 381.75L790.93 401.75L756.29 381.75L756.29 341.75zM825.58 741.75L860.22 761.75L860.22 801.75L825.58 821.75L790.93 801.75L790.93 761.75zM825.58 1221.75L860.22 1241.75L860.22 1281.75L825.58 1301.75L790.93 1281.75L790.93 1241.75zM860.22 -38.25L894.86 -18.25L894.86 21.75L860.22 41.75L825.58 21.75L825.58 -18.25zM894.86 1221.75L929.5 1241.75L929.5 1281.75L894.86 1301.75L860.22 1281.75L860.22 1241.75zM929.5 1401.75L964.14 1421.75L964.14 1461.75L929.5 1481.75L894.86 1461.75L894.86 1421.75zM964.14 1581.75L998.79 1601.75L998.79 1641.75L964.14 1661.75L929.5 1641.75L929.5 1601.75zM964.14 1701.75L998.79 1721.75L998.79 1761.75L964.14 1781.75L929.5 1761.75L929.5 1721.75zM964.14 1941.75L998.79 1961.75L998.79 2001.75L964.14 2021.75L929.5 2001.75L929.5 1961.75zM964.14 2541.75L998.79 2561.75L998.79 2601.75L964.14 2621.75L929.5 2601.75L929.5 2561.75zM998.79 81.75L1033.43 101.75L1033.43 141.75L998.79 161.75L964.14 141.75L964.14 101.75zM1033.43 261.75L1068.07 281.75L1068.07 321.75L1033.43 341.75L998.79 321.75L998.79 281.75zM998.79 321.75L1033.43 341.75L1033.43 381.75L998.79 401.75L964.14 381.75L964.14 341.75zM1033.43 381.75L1068.07 401.75L1068.07 441.75L1033.43 461.75L998.79 441.75L998.79 401.75zM998.79 561.75L1033.43 581.75L1033.43 621.75L998.79 641.75L964.14 621.75L964.14 581.75zM1033.43 621.75L1068.07 641.75L1068.07 681.75L1033.43 701.75L998.79 681.75L998.79 641.75zM1033.43 1101.75L1068.07 1121.75L1068.07 1161.75L1033.43 1181.75L998.79 1161.75L998.79 1121.75zM1033.43 1341.75L1068.07 1361.75L1068.07 1401.75L1033.43 1421.75L998.79 1401.75L998.79 1361.75zM998.79 1401.75L1033.43 1421.75L1033.43 1461.75L998.79 1481.75L964.14 1461.75L964.14 1421.75zM1033.43 2541.75L1068.07 2561.75L1068.07 2601.75L1033.43 2621.75L998.79 2601.75L998.79 2561.75zM1068.07 441.75L1102.71 461.75L1102.71 501.75L1068.07 521.75L1033.43 501.75L1033.43 461.75zM1102.71 981.75L1137.35 1001.75L1137.35 1041.75L1102.71 1061.75L1068.07 1041.75L1068.07 1001.75zM1068.07 1161.75L1102.71 1181.75L1102.71 1221.75L1068.07 1241.75L1033.43 1221.75L1033.43 1181.75zM1068.07 1401.75L1102.71 1421.75L1102.71 1461.75L1068.07 1481.75L1033.43 1461.75L1033.43 1421.75zM1102.71 1581.75L1137.35 1601.75L1137.35 1641.75L1102.71 1661.75L1068.07 1641.75L1068.07 1601.75zM1068.07 1881.75L1102.71 1901.75L1102.71 1941.75L1068.07 1961.75L1033.43 1941.75L1033.43 1901.75zM1137.35 321.75L1172 341.75L1172 381.75L1137.35 401.75L1102.71 381.75L1102.71 341.75zM1137.35 801.75L1172 821.75L1172 861.75L1137.35 881.75L1102.71 861.75L1102.71 821.75zM1172 981.75L1206.64 1001.75L1206.64 1041.75L1172 1061.75L1137.35 1041.75L1137.35 1001.75zM1137.35 2001.75L1172 2021.75L1172 2061.75L1137.35 2081.75L1102.71 2061.75L1102.71 2021.75zM1241.28 141.75L1275.92 161.75L1275.92 201.75L1241.28 221.75L1206.64 201.75L1206.64 161.75zM1206.64 1401.75L1241.28 1421.75L1241.28 1461.75L1206.64 1481.75L1172 1461.75L1172 1421.75zM1206.64 2241.75L1241.28 2261.75L1241.28 2301.75L1206.64 2321.75L1172 2301.75L1172 2261.75zM1241.28 2421.75L1275.92 2441.75L1275.92 2481.75L1241.28 2501.75L1206.64 2481.75L1206.64 2441.75zM1275.92 -38.25L1310.56 -18.25L1310.56 21.75L1275.92 41.75L1241.28 21.75L1241.28 -18.25zM1275.92 441.75L1310.56 461.75L1310.56 501.75L1275.92 521.75L1241.28 501.75L1241.28 461.75zM1310.56 1101.75L1345.21 1121.75L1345.21 1161.75L1310.56 1181.75L1275.92 1161.75L1275.92 1121.75zM1275.92 1161.75L1310.56 1181.75L1310.56 1221.75L1275.92 1241.75L1241.28 1221.75L1241.28 1181.75zM1310.56 1461.75L1345.21 1481.75L1345.21 1521.75L1310.56 1541.75L1275.92 1521.75L1275.92 1481.75zM1310.56 2181.75L1345.21 2201.75L1345.21 2241.75L1310.56 2261.75L1275.92 2241.75L1275.92 2201.75z" stroke="rgba(7, 42, 77, 1)" stroke-width="2"></path><path d="M59.45 381.75 a4 4 0 1 0 8 0 a4 4 0 1 0 -8 0zM94.09 401.75 a4 4 0 1 0 8 0 a4 4 0 1 0 -8 0zM94.09 441.75 a4 4 0 1 0 8 0 a4 4 0 1 0 -8 0zM59.45 461.75 a4 4 0 1 0 8 0 a4 4 0 1 0 -8 0zM24.81 441.75 a4 4 0 1 0 8 0 a4 4 0 1 0 -8 0zM24.81 401.75 a4 4 0 1 0 8 0 a4 4 0 1 0 -8 0zM59.45 621.75 a4 4 0 1 0 8 0 a4 4 0 1 0 -8 0zM94.09 641.75 a4 4 0 1 0 8 0 a4 4 0 1 0 -8 0zM94.09 681.75 a4 4 0 1 0 8 0 a4 4 0 1 0 -8 0zM59.45 701.75 a4 4 0 1 0 8 0 a4 4 0 1 0 -8 0zM24.81 681.75 a4 4 0 1 0 8 0 a4 4 0 1 0 -8 0zM24.81 641.75 a4 4 0 1 0 8 0 a4 4 0 1 0 -8 0zM59.45 1101.75 a4 4 0 1 0 8 0 a4 4 0 1 0 -8 0zM94.09 1121.75 a4 4 0 1 0 8 0 a4 4 0 1 0 -8 0zM94.09 1161.75 a4 4 0 1 0 8 0 a4 4 0 1 0 -8 0zM59.45 1181.75 a4 4 0 1 0 8 0 a4 4 0 1 0 -8 0zM24.81 1161.75 a4 4 0 1 0 8 0 a4 4 0 1 0 -8 0zM24.81 1121.75 a4 4 0 1 0 8 0 a4 4 0 1 0 -8 0zM59.45 1221.75 a4 4 0 1 0 8 0 a4 4 0 1 0 -8 0zM94.09 1241.75 a4 4 0 1 0 8 0 a4 4 0 1 0 -8 0zM94.09 1281.75 a4 4 0 1 0 8 0 a4 4 0 1 0 -8 0zM59.45 1301.75 a4 4 0 1 0 8 0 a4 4 0 1 0 -8 0zM24.81 1281.75 a4 4 0 1 0 8 0 a4 4 0 1 0 -8 0zM24.81 1241.75 a4 4 0 1 0 8 0 a4 4 0 1 0 -8 0zM59.45 1341.75 a4 4 0 1 0 8 0 a4 4 0 1 0 -8 0zM94.09 1361.75 a4 4 0 1 0 8 0 a4 4 0 1 0 -8 0zM94.09 1401.75 a4 4 0 1 0 8 0 a4 4 0 1 0 -8 0zM59.45 1421.75 a4 4 0 1 0 8 0 a4 4 0 1 0 -8 0zM24.81 1401.75 a4 4 0 1 0 8 0 a4 4 0 1 0 -8 0zM24.81 1361.75 a4 4 0 1 0 8 0 a4 4 0 1 0 -8 0zM59.45 1461.75 a4 4 0 1 0 8 0 a4 4 0 1 0 -8 0zM94.09 1481.75 a4 4 0 1 0 8 0 a4 4 0 1 0 -8 0zM94.09 1521.75 a4 4 0 1 0 8 0 a4 4 0 1 0 -8 0zM59.45 1541.75 a4 4 0 1 0 8 0 a4 4 0 1 0 -8 0zM24.81 1521.75 a4 4 0 1 0 8 0 a4 4 0 1 0 -8 0zM24.81 1481.75 a4 4 0 1 0 8 0 a4 4 0 1 0 -8 0zM24.81 2001.75 a4 4 0 1 0 8 0 a4 4 0 1 0 -8 0zM59.45 2021.75 a4 4 0 1 0 8 0 a4 4 0 1 0 -8 0zM59.45 2061.75 a4 4 0 1 0 8 0 a4 4 0 1 0 -8 0zM24.81 2081.75 a4 4 0 1 0 8 0 a4 4 0 1 0 -8 0zM-9.83 2061.75 a4 4 0 1 0 8 0 a4 4 0 1 0 -8 0zM-9.83 2021.75 a4 4 0 1 0 8 0 a4 4 0 1 0 -8 0zM128.74 261.75 a4 4 0 1 0 8 0 a4 4 0 1 0 -8 0zM163.38 281.75 a4 4 0 1 0 8 0 a4 4 0 1 0 -8 0zM163.38 321.75 a4 4 0 1 0 8 0 a4 4 0 1 0 -8 0zM128.74 341.75 a4 4 0 1 0 8 0 a4 4 0 1 0 -8 0zM94.09 321.75 a4 4 0 1 0 8 0 a4 4 0 1 0 -8 0zM94.09 281.75 a4 4 0 1 0 8 0 a4 4 0 1 0 -8 0zM128.74 741.75 a4 4 0 1 0 8 0 a4 4 0 1 0 -8 0zM163.38 761.75 a4 4 0 1 0 8 0 a4 4 0 1 0 -8 0zM163.38 801.75 a4 4 0 1 0 8 0 a4 4 0 1 0 -8 0zM128.74 821.75 a4 4 0 1 0 8 0 a4 4 0 1 0 -8 0zM94.09 801.75 a4 4 0 1 0 8 0 a4 4 0 1 0 -8 0zM94.09 761.75 a4 4 0 1 0 8 0 a4 4 0 1 0 -8 0zM128.74 861.75 a4 4 0 1 0 8 0 a4 4 0 1 0 -8 0zM163.38 881.75 a4 4 0 1 0 8 0 a4 4 0 1 0 -8 0zM163.38 921.75 a4 4 0 1 0 8 0 a4 4 0 1 0 -8 0zM128.74 941.75 a4 4 0 1 0 8 0 a4 4 0 1 0 -8 0zM94.09 921.75 a4 4 0 1 0 8 0 a4 4 0 1 0 -8 0zM94.09 881.75 a4 4 0 1 0 8 0 a4 4 0 1 0 -8 0zM128.74 2061.75 a4 4 0 1 0 8 0 a4 4 0 1 0 -8 0zM163.38 2081.75 a4 4 0 1 0 8 0 a4 4 0 1 0 -8 0zM163.38 2121.75 a4 4 0 1 0 8 0 a4 4 0 1 0 -8 0zM128.74 2141.75 a4 4 0 1 0 8 0 a4 4 0 1 0 -8 0zM94.09 2121.75 a4 4 0 1 0 8 0 a4 4 0 1 0 -8 0zM94.09 2081.75 a4 4 0 1 0 8 0 a4 4 0 1 0 -8 0zM128.74 2301.75 a4 4 0 1 0 8 0 a4 4 0 1 0 -8 0zM163.38 2321.75 a4 4 0 1 0 8 0 a4 4 0 1 0 -8 0zM163.38 2361.75 a4 4 0 1 0 8 0 a4 4 0 1 0 -8 0zM128.74 2381.75 a4 4 0 1 0 8 0 a4 4 0 1 0 -8 0zM94.09 2361.75 a4 4 0 1 0 8 0 a4 4 0 1 0 -8 0zM94.09 2321.75 a4 4 0 1 0 8 0 a4 4 0 1 0 -8 0zM163.38 -38.25 a4 4 0 1 0 8 0 a4 4 0 1 0 -8 0zM198.02 -18.25 a4 4 0 1 0 8 0 a4 4 0 1 0 -8 0zM198.02 21.75 a4 4 0 1 0 8 0 a4 4 0 1 0 -8 0zM163.38 41.75 a4 4 0 1 0 8 0 a4 4 0 1 0 -8 0zM128.74 21.75 a4 4 0 1 0 8 0 a4 4 0 1 0 -8 0zM128.74 -18.25 a4 4 0 1 0 8 0 a4 4 0 1 0 -8 0zM198.02 1581.75 a4 4 0 1 0 8 0 a4 4 0 1 0 -8 0zM232.66 1601.75 a4 4 0 1 0 8 0 a4 4 0 1 0 -8 0zM232.66 1641.75 a4 4 0 1 0 8 0 a4 4 0 1 0 -8 0zM198.02 1661.75 a4 4 0 1 0 8 0 a4 4 0 1 0 -8 0zM163.38 1641.75 a4 4 0 1 0 8 0 a4 4 0 1 0 -8 0zM163.38 1601.75 a4 4 0 1 0 8 0 a4 4 0 1 0 -8 0zM198.02 2141.75 a4 4 0 1 0 8 0 a4 4 0 1 0 -8 0zM198.02 2181.75 a4 4 0 1 0 8 0 a4 4 0 1 0 -8 0zM163.38 2201.75 a4 4 0 1 0 8 0 a4 4 0 1 0 -8 0zM128.74 2181.75 a4 4 0 1 0 8 0 a4 4 0 1 0 -8 0zM198.02 2421.75 a4 4 0 1 0 8 0 a4 4 0 1 0 -8 0zM232.66 2441.75 a4 4 0 1 0 8 0 a4 4 0 1 0 -8 0zM232.66 2481.75 a4 4 0 1 0 8 0 a4 4 0 1 0 -8 0zM198.02 2501.75 a4 4 0 1 0 8 0 a4 4 0 1 0 -8 0zM163.38 2481.75 a4 4 0 1 0 8 0 a4 4 0 1 0 -8 0zM163.38 2441.75 a4 4 0 1 0 8 0 a4 4 0 1 0 -8 0zM267.3 21.75 a4 4 0 1 0 8 0 a4 4 0 1 0 -8 0zM301.95 41.75 a4 4 0 1 0 8 0 a4 4 0 1 0 -8 0zM301.95 81.75 a4 4 0 1 0 8 0 a4 4 0 1 0 -8 0zM267.3 101.75 a4 4 0 1 0 8 0 a4 4 0 1 0 -8 0zM232.66 81.75 a4 4 0 1 0 8 0 a4 4 0 1 0 -8 0zM232.66 41.75 a4 4 0 1 0 8 0 a4 4 0 1 0 -8 0zM232.66 321.75 a4 4 0 1 0 8 0 a4 4 0 1 0 -8 0zM267.3 341.75 a4 4 0 1 0 8 0 a4 4 0 1 0 -8 0zM267.3 381.75 a4 4 0 1 0 8 0 a4 4 0 1 0 -8 0zM232.66 401.75 a4 4 0 1 0 8 0 a4 4 0 1 0 -8 0zM198.02 381.75 a4 4 0 1 0 8 0 a4 4 0 1 0 -8 0zM198.02 341.75 a4 4 0 1 0 8 0 a4 4 0 1 0 -8 0zM232.66 561.75 a4 4 0 1 0 8 0 a4 4 0 1 0 -8 0zM267.3 581.75 a4 4 0 1 0 8 0 a4 4 0 1 0 -8 0zM267.3 621.75 a4 4 0 1 0 8 0 a4 4 0 1 0 -8 0zM232.66 641.75 a4 4 0 1 0 8 0 a4 4 0 1 0 -8 0zM198.02 621.75 a4 4 0 1 0 8 0 a4 4 0 1 0 -8 0zM198.02 581.75 a4 4 0 1 0 8 0 a4 4 0 1 0 -8 0zM232.66 921.75 a4 4 0 1 0 8 0 a4 4 0 1 0 -8 0zM267.3 941.75 a4 4 0 1 0 8 0 a4 4 0 1 0 -8 0zM267.3 981.75 a4 4 0 1 0 8 0 a4 4 0 1 0 -8 0zM232.66 1001.75 a4 4 0 1 0 8 0 a4 4 0 1 0 -8 0zM198.02 981.75 a4 4 0 1 0 8 0 a4 4 0 1 0 -8 0zM198.02 941.75 a4 4 0 1 0 8 0 a4 4 0 1 0 -8 0zM267.3 1101.75 a4 4 0 1 0 8 0 a4 4 0 1 0 -8 0zM301.95 1121.75 a4 4 0 1 0 8 0 a4 4 0 1 0 -8 0zM301.95 1161.75 a4 4 0 1 0 8 0 a4 4 0 1 0 -8 0zM267.3 1181.75 a4 4 0 1 0 8 0 a4 4 0 1 0 -8 0zM232.66 1161.75 a4 4 0 1 0 8 0 a4 4 0 1 0 -8 0zM232.66 1121.75 a4 4 0 1 0 8 0 a4 4 0 1 0 -8 0zM267.3 1661.75 a4 4 0 1 0 8 0 a4 4 0 1 0 -8 0zM267.3 1701.75 a4 4 0 1 0 8 0 a4 4 0 1 0 -8 0zM232.66 1721.75 a4 4 0 1 0 8 0 a4 4 0 1 0 -8 0zM198.02 1701.75 a4 4 0 1 0 8 0 a4 4 0 1 0 -8 0zM267.3 2421.75 a4 4 0 1 0 8 0 a4 4 0 1 0 -8 0zM301.95 2441.75 a4 4 0 1 0 8 0 a4 4 0 1 0 -8 0zM301.95 2481.75 a4 4 0 1 0 8 0 a4 4 0 1 0 -8 0zM267.3 2501.75 a4 4 0 1 0 8 0 a4 4 0 1 0 -8 0zM267.3 2541.75 a4 4 0 1 0 8 0 a4 4 0 1 0 -8 0zM232.66 2561.75 a4 4 0 1 0 8 0 a4 4 0 1 0 -8 0zM198.02 2541.75 a4 4 0 1 0 8 0 a4 4 0 1 0 -8 0zM336.59 141.75 a4 4 0 1 0 8 0 a4 4 0 1 0 -8 0zM371.23 161.75 a4 4 0 1 0 8 0 a4 4 0 1 0 -8 0zM371.23 201.75 a4 4 0 1 0 8 0 a4 4 0 1 0 -8 0zM336.59 221.75 a4 4 0 1 0 8 0 a4 4 0 1 0 -8 0zM301.95 201.75 a4 4 0 1 0 8 0 a4 4 0 1 0 -8 0zM301.95 161.75 a4 4 0 1 0 8 0 a4 4 0 1 0 -8 0zM336.59 261.75 a4 4 0 1 0 8 0 a4 4 0 1 0 -8 0zM301.95 281.75 a4 4 0 1 0 8 0 a4 4 0 1 0 -8 0zM267.3 261.75 a4 4 0 1 0 8 0 a4 4 0 1 0 -8 0zM267.3 221.75 a4 4 0 1 0 8 0 a4 4 0 1 0 -8 0zM301.95 1281.75 a4 4 0 1 0 8 0 a4 4 0 1 0 -8 0zM336.59 1301.75 a4 4 0 1 0 8 0 a4 4 0 1 0 -8 0zM336.59 1341.75 a4 4 0 1 0 8 0 a4 4 0 1 0 -8 0zM301.95 1361.75 a4 4 0 1 0 8 0 a4 4 0 1 0 -8 0zM267.3 1341.75 a4 4 0 1 0 8 0 a4 4 0 1 0 -8 0zM267.3 1301.75 a4 4 0 1 0 8 0 a4 4 0 1 0 -8 0zM336.59 1701.75 a4 4 0 1 0 8 0 a4 4 0 1 0 -8 0zM371.23 1721.75 a4 4 0 1 0 8 0 a4 4 0 1 0 -8 0zM371.23 1761.75 a4 4 0 1 0 8 0 a4 4 0 1 0 -8 0zM336.59 1781.75 a4 4 0 1 0 8 0 a4 4 0 1 0 -8 0zM301.95 1761.75 a4 4 0 1 0 8 0 a4 4 0 1 0 -8 0zM301.95 1721.75 a4 4 0 1 0 8 0 a4 4 0 1 0 -8 0zM405.87 381.75 a4 4 0 1 0 8 0 a4 4 0 1 0 -8 0zM440.51 401.75 a4 4 0 1 0 8 0 a4 4 0 1 0 -8 0zM440.51 441.75 a4 4 0 1 0 8 0 a4 4 0 1 0 -8 0zM405.87 461.75 a4 4 0 1 0 8 0 a4 4 0 1 0 -8 0zM371.23 441.75 a4 4 0 1 0 8 0 a4 4 0 1 0 -8 0zM371.23 401.75 a4 4 0 1 0 8 0 a4 4 0 1 0 -8 0zM405.87 621.75 a4 4 0 1 0 8 0 a4 4 0 1 0 -8 0zM440.51 641.75 a4 4 0 1 0 8 0 a4 4 0 1 0 -8 0zM440.51 681.75 a4 4 0 1 0 8 0 a4 4 0 1 0 -8 0zM405.87 701.75 a4 4 0 1 0 8 0 a4 4 0 1 0 -8 0zM371.23 681.75 a4 4 0 1 0 8 0 a4 4 0 1 0 -8 0zM371.23 641.75 a4 4 0 1 0 8 0 a4 4 0 1 0 -8 0zM405.87 741.75 a4 4 0 1 0 8 0 a4 4 0 1 0 -8 0zM371.23 761.75 a4 4 0 1 0 8 0 a4 4 0 1 0 -8 0zM336.59 741.75 a4 4 0 1 0 8 0 a4 4 0 1 0 -8 0zM336.59 701.75 a4 4 0 1 0 8 0 a4 4 0 1 0 -8 0zM440.51 761.75 a4 4 0 1 0 8 0 a4 4 0 1 0 -8 0zM440.51 801.75 a4 4 0 1 0 8 0 a4 4 0 1 0 -8 0zM405.87 821.75 a4 4 0 1 0 8 0 a4 4 0 1 0 -8 0zM371.23 801.75 a4 4 0 1 0 8 0 a4 4 0 1 0 -8 0zM405.87 1101.75 a4 4 0 1 0 8 0 a4 4 0 1 0 -8 0zM440.51 1121.75 a4 4 0 1 0 8 0 a4 4 0 1 0 -8 0zM440.51 1161.75 a4 4 0 1 0 8 0 a4 4 0 1 0 -8 0zM405.87 1181.75 a4 4 0 1 0 8 0 a4 4 0 1 0 -8 0zM371.23 1161.75 a4 4 0 1 0 8 0 a4 4 0 1 0 -8 0zM371.23 1121.75 a4 4 0 1 0 8 0 a4 4 0 1 0 -8 0zM371.23 1401.75 a4 4 0 1 0 8 0 a4 4 0 1 0 -8 0zM405.87 1421.75 a4 4 0 1 0 8 0 a4 4 0 1 0 -8 0zM405.87 1461.75 a4 4 0 1 0 8 0 a4 4 0 1 0 -8 0zM371.23 1481.75 a4 4 0 1 0 8 0 a4 4 0 1 0 -8 0zM336.59 1461.75 a4 4 0 1 0 8 0 a4 4 0 1 0 -8 0zM336.59 1421.75 a4 4 0 1 0 8 0 a4 4 0 1 0 -8 0zM405.87 1941.75 a4 4 0 1 0 8 0 a4 4 0 1 0 -8 0zM440.51 1961.75 a4 4 0 1 0 8 0 a4 4 0 1 0 -8 0zM440.51 2001.75 a4 4 0 1 0 8 0 a4 4 0 1 0 -8 0zM405.87 2021.75 a4 4 0 1 0 8 0 a4 4 0 1 0 -8 0zM371.23 2001.75 a4 4 0 1 0 8 0 a4 4 0 1 0 -8 0zM371.23 1961.75 a4 4 0 1 0 8 0 a4 4 0 1 0 -8 0zM405.87 2061.75 a4 4 0 1 0 8 0 a4 4 0 1 0 -8 0zM371.23 2081.75 a4 4 0 1 0 8 0 a4 4 0 1 0 -8 0zM336.59 2061.75 a4 4 0 1 0 8 0 a4 4 0 1 0 -8 0zM336.59 2021.75 a4 4 0 1 0 8 0 a4 4 0 1 0 -8 0zM440.51 2081.75 a4 4 0 1 0 8 0 a4 4 0 1 0 -8 0zM440.51 2121.75 a4 4 0 1 0 8 0 a4 4 0 1 0 -8 0zM405.87 2141.75 a4 4 0 1 0 8 0 a4 4 0 1 0 -8 0zM371.23 2121.75 a4 4 0 1 0 8 0 a4 4 0 1 0 -8 0zM405.87 2421.75 a4 4 0 1 0 8 0 a4 4 0 1 0 -8 0zM440.51 2441.75 a4 4 0 1 0 8 0 a4 4 0 1 0 -8 0zM440.51 2481.75 a4 4 0 1 0 8 0 a4 4 0 1 0 -8 0zM405.87 2501.75 a4 4 0 1 0 8 0 a4 4 0 1 0 -8 0zM371.23 2481.75 a4 4 0 1 0 8 0 a4 4 0 1 0 -8 0zM371.23 2441.75 a4 4 0 1 0 8 0 a4 4 0 1 0 -8 0zM440.51 321.75 a4 4 0 1 0 8 0 a4 4 0 1 0 -8 0zM475.16 341.75 a4 4 0 1 0 8 0 a4 4 0 1 0 -8 0zM475.16 381.75 a4 4 0 1 0 8 0 a4 4 0 1 0 -8 0zM405.87 341.75 a4 4 0 1 0 8 0 a4 4 0 1 0 -8 0zM475.16 621.75 a4 4 0 1 0 8 0 a4 4 0 1 0 -8 0zM509.8 641.75 a4 4 0 1 0 8 0 a4 4 0 1 0 -8 0zM509.8 681.75 a4 4 0 1 0 8 0 a4 4 0 1 0 -8 0zM475.16 701.75 a4 4 0 1 0 8 0 a4 4 0 1 0 -8 0zM475.16 741.75 a4 4 0 1 0 8 0 a4 4 0 1 0 -8 0zM475.16 1821.75 a4 4 0 1 0 8 0 a4 4 0 1 0 -8 0zM509.8 1841.75 a4 4 0 1 0 8 0 a4 4 0 1 0 -8 0zM509.8 1881.75 a4 4 0 1 0 8 0 a4 4 0 1 0 -8 0zM475.16 1901.75 a4 4 0 1 0 8 0 a4 4 0 1 0 -8 0zM440.51 1881.75 a4 4 0 1 0 8 0 a4 4 0 1 0 -8 0zM440.51 1841.75 a4 4 0 1 0 8 0 a4 4 0 1 0 -8 0zM475.16 2061.75 a4 4 0 1 0 8 0 a4 4 0 1 0 -8 0zM509.8 2081.75 a4 4 0 1 0 8 0 a4 4 0 1 0 -8 0zM509.8 2121.75 a4 4 0 1 0 8 0 a4 4 0 1 0 -8 0zM475.16 2141.75 a4 4 0 1 0 8 0 a4 4 0 1 0 -8 0zM475.16 2501.75 a4 4 0 1 0 8 0 a4 4 0 1 0 -8 0zM475.16 2541.75 a4 4 0 1 0 8 0 a4 4 0 1 0 -8 0zM440.51 2561.75 a4 4 0 1 0 8 0 a4 4 0 1 0 -8 0zM405.87 2541.75 a4 4 0 1 0 8 0 a4 4 0 1 0 -8 0zM509.8 -38.25 a4 4 0 1 0 8 0 a4 4 0 1 0 -8 0zM544.44 -18.25 a4 4 0 1 0 8 0 a4 4 0 1 0 -8 0zM544.44 21.75 a4 4 0 1 0 8 0 a4 4 0 1 0 -8 0zM509.8 41.75 a4 4 0 1 0 8 0 a4 4 0 1 0 -8 0zM475.16 21.75 a4 4 0 1 0 8 0 a4 4 0 1 0 -8 0zM475.16 -18.25 a4 4 0 1 0 8 0 a4 4 0 1 0 -8 0zM509.8 321.75 a4 4 0 1 0 8 0 a4 4 0 1 0 -8 0zM544.44 341.75 a4 4 0 1 0 8 0 a4 4 0 1 0 -8 0zM544.44 381.75 a4 4 0 1 0 8 0 a4 4 0 1 0 -8 0zM509.8 401.75 a4 4 0 1 0 8 0 a4 4 0 1 0 -8 0zM509.8 801.75 a4 4 0 1 0 8 0 a4 4 0 1 0 -8 0zM544.44 821.75 a4 4 0 1 0 8 0 a4 4 0 1 0 -8 0zM544.44 861.75 a4 4 0 1 0 8 0 a4 4 0 1 0 -8 0zM509.8 881.75 a4 4 0 1 0 8 0 a4 4 0 1 0 -8 0zM475.16 861.75 a4 4 0 1 0 8 0 a4 4 0 1 0 -8 0zM475.16 821.75 a4 4 0 1 0 8 0 a4 4 0 1 0 -8 0zM544.44 2061.75 a4 4 0 1 0 8 0 a4 4 0 1 0 -8 0zM579.08 2081.75 a4 4 0 1 0 8 0 a4 4 0 1 0 -8 0zM579.08 2121.75 a4 4 0 1 0 8 0 a4 4 0 1 0 -8 0zM544.44 2141.75 a4 4 0 1 0 8 0 a4 4 0 1 0 -8 0zM544.44 2181.75 a4 4 0 1 0 8 0 a4 4 0 1 0 -8 0zM579.08 2201.75 a4 4 0 1 0 8 0 a4 4 0 1 0 -8 0zM579.08 2241.75 a4 4 0 1 0 8 0 a4 4 0 1 0 -8 0zM544.44 2261.75 a4 4 0 1 0 8 0 a4 4 0 1 0 -8 0zM509.8 2241.75 a4 4 0 1 0 8 0 a4 4 0 1 0 -8 0zM509.8 2201.75 a4 4 0 1 0 8 0 a4 4 0 1 0 -8 0zM509.8 2361.75 a4 4 0 1 0 8 0 a4 4 0 1 0 -8 0zM544.44 2381.75 a4 4 0 1 0 8 0 a4 4 0 1 0 -8 0zM544.44 2421.75 a4 4 0 1 0 8 0 a4 4 0 1 0 -8 0zM509.8 2441.75 a4 4 0 1 0 8 0 a4 4 0 1 0 -8 0zM475.16 2421.75 a4 4 0 1 0 8 0 a4 4 0 1 0 -8 0zM475.16 2381.75 a4 4 0 1 0 8 0 a4 4 0 1 0 -8 0zM509.8 2481.75 a4 4 0 1 0 8 0 a4 4 0 1 0 -8 0zM544.44 2501.75 a4 4 0 1 0 8 0 a4 4 0 1 0 -8 0zM544.44 2541.75 a4 4 0 1 0 8 0 a4 4 0 1 0 -8 0zM509.8 2561.75 a4 4 0 1 0 8 0 a4 4 0 1 0 -8 0zM579.08 201.75 a4 4 0 1 0 8 0 a4 4 0 1 0 -8 0zM613.72 221.75 a4 4 0 1 0 8 0 a4 4 0 1 0 -8 0zM613.72 261.75 a4 4 0 1 0 8 0 a4 4 0 1 0 -8 0zM579.08 281.75 a4 4 0 1 0 8 0 a4 4 0 1 0 -8 0zM544.44 261.75 a4 4 0 1 0 8 0 a4 4 0 1 0 -8 0zM544.44 221.75 a4 4 0 1 0 8 0 a4 4 0 1 0 -8 0zM579.08 321.75 a4 4 0 1 0 8 0 a4 4 0 1 0 -8 0zM613.72 341.75 a4 4 0 1 0 8 0 a4 4 0 1 0 -8 0zM613.72 381.75 a4 4 0 1 0 8 0 a4 4 0 1 0 -8 0zM579.08 401.75 a4 4 0 1 0 8 0 a4 4 0 1 0 -8 0zM579.08 801.75 a4 4 0 1 0 8 0 a4 4 0 1 0 -8 0zM613.72 821.75 a4 4 0 1 0 8 0 a4 4 0 1 0 -8 0zM613.72 861.75 a4 4 0 1 0 8 0 a4 4 0 1 0 -8 0zM579.08 881.75 a4 4 0 1 0 8 0 a4 4 0 1 0 -8 0zM613.72 1101.75 a4 4 0 1 0 8 0 a4 4 0 1 0 -8 0zM648.37 1121.75 a4 4 0 1 0 8 0 a4 4 0 1 0 -8 0zM648.37 1161.75 a4 4 0 1 0 8 0 a4 4 0 1 0 -8 0zM613.72 1181.75 a4 4 0 1 0 8 0 a4 4 0 1 0 -8 0zM579.08 1161.75 a4 4 0 1 0 8 0 a4 4 0 1 0 -8 0zM579.08 1121.75 a4 4 0 1 0 8 0 a4 4 0 1 0 -8 0zM613.72 1821.75 a4 4 0 1 0 8 0 a4 4 0 1 0 -8 0zM648.37 1841.75 a4 4 0 1 0 8 0 a4 4 0 1 0 -8 0zM648.37 1881.75 a4 4 0 1 0 8 0 a4 4 0 1 0 -8 0zM613.72 1901.75 a4 4 0 1 0 8 0 a4 4 0 1 0 -8 0zM579.08 1881.75 a4 4 0 1 0 8 0 a4 4 0 1 0 -8 0zM579.08 1841.75 a4 4 0 1 0 8 0 a4 4 0 1 0 -8 0zM579.08 2361.75 a4 4 0 1 0 8 0 a4 4 0 1 0 -8 0zM613.72 2381.75 a4 4 0 1 0 8 0 a4 4 0 1 0 -8 0zM613.72 2421.75 a4 4 0 1 0 8 0 a4 4 0 1 0 -8 0zM579.08 2441.75 a4 4 0 1 0 8 0 a4 4 0 1 0 -8 0zM648.37 321.75 a4 4 0 1 0 8 0 a4 4 0 1 0 -8 0zM683.01 341.75 a4 4 0 1 0 8 0 a4 4 0 1 0 -8 0zM683.01 381.75 a4 4 0 1 0 8 0 a4 4 0 1 0 -8 0zM648.37 401.75 a4 4 0 1 0 8 0 a4 4 0 1 0 -8 0zM683.01 741.75 a4 4 0 1 0 8 0 a4 4 0 1 0 -8 0zM717.65 761.75 a4 4 0 1 0 8 0 a4 4 0 1 0 -8 0zM717.65 801.75 a4 4 0 1 0 8 0 a4 4 0 1 0 -8 0zM683.01 821.75 a4 4 0 1 0 8 0 a4 4 0 1 0 -8 0zM648.37 801.75 a4 4 0 1 0 8 0 a4 4 0 1 0 -8 0zM648.37 761.75 a4 4 0 1 0 8 0 a4 4 0 1 0 -8 0zM683.01 1341.75 a4 4 0 1 0 8 0 a4 4 0 1 0 -8 0zM717.65 1361.75 a4 4 0 1 0 8 0 a4 4 0 1 0 -8 0zM717.65 1401.75 a4 4 0 1 0 8 0 a4 4 0 1 0 -8 0zM683.01 1421.75 a4 4 0 1 0 8 0 a4 4 0 1 0 -8 0zM648.37 1401.75 a4 4 0 1 0 8 0 a4 4 0 1 0 -8 0zM648.37 1361.75 a4 4 0 1 0 8 0 a4 4 0 1 0 -8 0zM683.01 2061.75 a4 4 0 1 0 8 0 a4 4 0 1 0 -8 0zM717.65 2081.75 a4 4 0 1 0 8 0 a4 4 0 1 0 -8 0zM717.65 2121.75 a4 4 0 1 0 8 0 a4 4 0 1 0 -8 0zM683.01 2141.75 a4 4 0 1 0 8 0 a4 4 0 1 0 -8 0zM648.37 2121.75 a4 4 0 1 0 8 0 a4 4 0 1 0 -8 0zM648.37 2081.75 a4 4 0 1 0 8 0 a4 4 0 1 0 -8 0zM648.37 2481.75 a4 4 0 1 0 8 0 a4 4 0 1 0 -8 0zM683.01 2501.75 a4 4 0 1 0 8 0 a4 4 0 1 0 -8 0zM683.01 2541.75 a4 4 0 1 0 8 0 a4 4 0 1 0 -8 0zM648.37 2561.75 a4 4 0 1 0 8 0 a4 4 0 1 0 -8 0zM613.72 2541.75 a4 4 0 1 0 8 0 a4 4 0 1 0 -8 0zM613.72 2501.75 a4 4 0 1 0 8 0 a4 4 0 1 0 -8 0zM717.65 81.75 a4 4 0 1 0 8 0 a4 4 0 1 0 -8 0zM752.29 101.75 a4 4 0 1 0 8 0 a4 4 0 1 0 -8 0zM752.29 141.75 a4 4 0 1 0 8 0 a4 4 0 1 0 -8 0zM717.65 161.75 a4 4 0 1 0 8 0 a4 4 0 1 0 -8 0zM683.01 141.75 a4 4 0 1 0 8 0 a4 4 0 1 0 -8 0zM683.01 101.75 a4 4 0 1 0 8 0 a4 4 0 1 0 -8 0zM717.65 441.75 a4 4 0 1 0 8 0 a4 4 0 1 0 -8 0zM752.29 461.75 a4 4 0 1 0 8 0 a4 4 0 1 0 -8 0zM752.29 501.75 a4 4 0 1 0 8 0 a4 4 0 1 0 -8 0zM717.65 521.75 a4 4 0 1 0 8 0 a4 4 0 1 0 -8 0zM683.01 501.75 a4 4 0 1 0 8 0 a4 4 0 1 0 -8 0zM683.01 461.75 a4 4 0 1 0 8 0 a4 4 0 1 0 -8 0zM717.65 1041.75 a4 4 0 1 0 8 0 a4 4 0 1 0 -8 0zM752.29 1061.75 a4 4 0 1 0 8 0 a4 4 0 1 0 -8 0zM752.29 1101.75 a4 4 0 1 0 8 0 a4 4 0 1 0 -8 0zM717.65 1121.75 a4 4 0 1 0 8 0 a4 4 0 1 0 -8 0zM683.01 1101.75 a4 4 0 1 0 8 0 a4 4 0 1 0 -8 0zM683.01 1061.75 a4 4 0 1 0 8 0 a4 4 0 1 0 -8 0zM752.29 1221.75 a4 4 0 1 0 8 0 a4 4 0 1 0 -8 0zM786.93 1241.75 a4 4 0 1 0 8 0 a4 4 0 1 0 -8 0zM786.93 1281.75 a4 4 0 1 0 8 0 a4 4 0 1 0 -8 0zM752.29 1301.75 a4 4 0 1 0 8 0 a4 4 0 1 0 -8 0zM717.65 1281.75 a4 4 0 1 0 8 0 a4 4 0 1 0 -8 0zM717.65 1241.75 a4 4 0 1 0 8 0 a4 4 0 1 0 -8 0zM752.29 1421.75 a4 4 0 1 0 8 0 a4 4 0 1 0 -8 0zM752.29 1461.75 a4 4 0 1 0 8 0 a4 4 0 1 0 -8 0zM717.65 1481.75 a4 4 0 1 0 8 0 a4 4 0 1 0 -8 0zM683.01 1461.75 a4 4 0 1 0 8 0 a4 4 0 1 0 -8 0zM717.65 2241.75 a4 4 0 1 0 8 0 a4 4 0 1 0 -8 0zM752.29 2261.75 a4 4 0 1 0 8 0 a4 4 0 1 0 -8 0zM752.29 2301.75 a4 4 0 1 0 8 0 a4 4 0 1 0 -8 0zM717.65 2321.75 a4 4 0 1 0 8 0 a4 4 0 1 0 -8 0zM683.01 2301.75 a4 4 0 1 0 8 0 a4 4 0 1 0 -8 0zM683.01 2261.75 a4 4 0 1 0 8 0 a4 4 0 1 0 -8 0zM786.93 321.75 a4 4 0 1 0 8 0 a4 4 0 1 0 -8 0zM821.58 341.75 a4 4 0 1 0 8 0 a4 4 0 1 0 -8 0zM821.58 381.75 a4 4 0 1 0 8 0 a4 4 0 1 0 -8 0zM786.93 401.75 a4 4 0 1 0 8 0 a4 4 0 1 0 -8 0zM752.29 381.75 a4 4 0 1 0 8 0 a4 4 0 1 0 -8 0zM752.29 341.75 a4 4 0 1 0 8 0 a4 4 0 1 0 -8 0zM821.58 741.75 a4 4 0 1 0 8 0 a4 4 0 1 0 -8 0zM856.22 761.75 a4 4 0 1 0 8 0 a4 4 0 1 0 -8 0zM856.22 801.75 a4 4 0 1 0 8 0 a4 4 0 1 0 -8 0zM821.58 821.75 a4 4 0 1 0 8 0 a4 4 0 1 0 -8 0zM786.93 801.75 a4 4 0 1 0 8 0 a4 4 0 1 0 -8 0zM786.93 761.75 a4 4 0 1 0 8 0 a4 4 0 1 0 -8 0zM821.58 1221.75 a4 4 0 1 0 8 0 a4 4 0 1 0 -8 0zM856.22 1241.75 a4 4 0 1 0 8 0 a4 4 0 1 0 -8 0zM856.22 1281.75 a4 4 0 1 0 8 0 a4 4 0 1 0 -8 0zM821.58 1301.75 a4 4 0 1 0 8 0 a4 4 0 1 0 -8 0zM856.22 -38.25 a4 4 0 1 0 8 0 a4 4 0 1 0 -8 0zM890.86 -18.25 a4 4 0 1 0 8 0 a4 4 0 1 0 -8 0zM890.86 21.75 a4 4 0 1 0 8 0 a4 4 0 1 0 -8 0zM856.22 41.75 a4 4 0 1 0 8 0 a4 4 0 1 0 -8 0zM821.58 21.75 a4 4 0 1 0 8 0 a4 4 0 1 0 -8 0zM821.58 -18.25 a4 4 0 1 0 8 0 a4 4 0 1 0 -8 0zM890.86 1221.75 a4 4 0 1 0 8 0 a4 4 0 1 0 -8 0zM925.5 1241.75 a4 4 0 1 0 8 0 a4 4 0 1 0 -8 0zM925.5 1281.75 a4 4 0 1 0 8 0 a4 4 0 1 0 -8 0zM890.86 1301.75 a4 4 0 1 0 8 0 a4 4 0 1 0 -8 0zM925.5 1401.75 a4 4 0 1 0 8 0 a4 4 0 1 0 -8 0zM960.14 1421.75 a4 4 0 1 0 8 0 a4 4 0 1 0 -8 0zM960.14 1461.75 a4 4 0 1 0 8 0 a4 4 0 1 0 -8 0zM925.5 1481.75 a4 4 0 1 0 8 0 a4 4 0 1 0 -8 0zM890.86 1461.75 a4 4 0 1 0 8 0 a4 4 0 1 0 -8 0zM890.86 1421.75 a4 4 0 1 0 8 0 a4 4 0 1 0 -8 0zM960.14 1581.75 a4 4 0 1 0 8 0 a4 4 0 1 0 -8 0zM994.79 1601.75 a4 4 0 1 0 8 0 a4 4 0 1 0 -8 0zM994.79 1641.75 a4 4 0 1 0 8 0 a4 4 0 1 0 -8 0zM960.14 1661.75 a4 4 0 1 0 8 0 a4 4 0 1 0 -8 0zM925.5 1641.75 a4 4 0 1 0 8 0 a4 4 0 1 0 -8 0zM925.5 1601.75 a4 4 0 1 0 8 0 a4 4 0 1 0 -8 0zM960.14 1701.75 a4 4 0 1 0 8 0 a4 4 0 1 0 -8 0zM994.79 1721.75 a4 4 0 1 0 8 0 a4 4 0 1 0 -8 0zM994.79 1761.75 a4 4 0 1 0 8 0 a4 4 0 1 0 -8 0zM960.14 1781.75 a4 4 0 1 0 8 0 a4 4 0 1 0 -8 0zM925.5 1761.75 a4 4 0 1 0 8 0 a4 4 0 1 0 -8 0zM925.5 1721.75 a4 4 0 1 0 8 0 a4 4 0 1 0 -8 0zM960.14 1941.75 a4 4 0 1 0 8 0 a4 4 0 1 0 -8 0zM994.79 1961.75 a4 4 0 1 0 8 0 a4 4 0 1 0 -8 0zM994.79 2001.75 a4 4 0 1 0 8 0 a4 4 0 1 0 -8 0zM960.14 2021.75 a4 4 0 1 0 8 0 a4 4 0 1 0 -8 0zM925.5 2001.75 a4 4 0 1 0 8 0 a4 4 0 1 0 -8 0zM925.5 1961.75 a4 4 0 1 0 8 0 a4 4 0 1 0 -8 0zM960.14 2541.75 a4 4 0 1 0 8 0 a4 4 0 1 0 -8 0zM994.79 2561.75 a4 4 0 1 0 8 0 a4 4 0 1 0 -8 0zM994.79 2601.75 a4 4 0 1 0 8 0 a4 4 0 1 0 -8 0zM960.14 2621.75 a4 4 0 1 0 8 0 a4 4 0 1 0 -8 0zM925.5 2601.75 a4 4 0 1 0 8 0 a4 4 0 1 0 -8 0zM925.5 2561.75 a4 4 0 1 0 8 0 a4 4 0 1 0 -8 0zM994.79 81.75 a4 4 0 1 0 8 0 a4 4 0 1 0 -8 0zM1029.43 101.75 a4 4 0 1 0 8 0 a4 4 0 1 0 -8 0zM1029.43 141.75 a4 4 0 1 0 8 0 a4 4 0 1 0 -8 0zM994.79 161.75 a4 4 0 1 0 8 0 a4 4 0 1 0 -8 0zM960.14 141.75 a4 4 0 1 0 8 0 a4 4 0 1 0 -8 0zM960.14 101.75 a4 4 0 1 0 8 0 a4 4 0 1 0 -8 0zM1029.43 261.75 a4 4 0 1 0 8 0 a4 4 0 1 0 -8 0zM1064.07 281.75 a4 4 0 1 0 8 0 a4 4 0 1 0 -8 0zM1064.07 321.75 a4 4 0 1 0 8 0 a4 4 0 1 0 -8 0zM1029.43 341.75 a4 4 0 1 0 8 0 a4 4 0 1 0 -8 0zM994.79 321.75 a4 4 0 1 0 8 0 a4 4 0 1 0 -8 0zM994.79 281.75 a4 4 0 1 0 8 0 a4 4 0 1 0 -8 0zM1029.43 381.75 a4 4 0 1 0 8 0 a4 4 0 1 0 -8 0zM994.79 401.75 a4 4 0 1 0 8 0 a4 4 0 1 0 -8 0zM960.14 381.75 a4 4 0 1 0 8 0 a4 4 0 1 0 -8 0zM960.14 341.75 a4 4 0 1 0 8 0 a4 4 0 1 0 -8 0zM1064.07 401.75 a4 4 0 1 0 8 0 a4 4 0 1 0 -8 0zM1064.07 441.75 a4 4 0 1 0 8 0 a4 4 0 1 0 -8 0zM1029.43 461.75 a4 4 0 1 0 8 0 a4 4 0 1 0 -8 0zM994.79 441.75 a4 4 0 1 0 8 0 a4 4 0 1 0 -8 0zM994.79 561.75 a4 4 0 1 0 8 0 a4 4 0 1 0 -8 0zM1029.43 581.75 a4 4 0 1 0 8 0 a4 4 0 1 0 -8 0zM1029.43 621.75 a4 4 0 1 0 8 0 a4 4 0 1 0 -8 0zM994.79 641.75 a4 4 0 1 0 8 0 a4 4 0 1 0 -8 0zM960.14 621.75 a4 4 0 1 0 8 0 a4 4 0 1 0 -8 0zM960.14 581.75 a4 4 0 1 0 8 0 a4 4 0 1 0 -8 0zM1064.07 641.75 a4 4 0 1 0 8 0 a4 4 0 1 0 -8 0zM1064.07 681.75 a4 4 0 1 0 8 0 a4 4 0 1 0 -8 0zM1029.43 701.75 a4 4 0 1 0 8 0 a4 4 0 1 0 -8 0zM994.79 681.75 a4 4 0 1 0 8 0 a4 4 0 1 0 -8 0zM1029.43 1101.75 a4 4 0 1 0 8 0 a4 4 0 1 0 -8 0zM1064.07 1121.75 a4 4 0 1 0 8 0 a4 4 0 1 0 -8 0zM1064.07 1161.75 a4 4 0 1 0 8 0 a4 4 0 1 0 -8 0zM1029.43 1181.75 a4 4 0 1 0 8 0 a4 4 0 1 0 -8 0zM994.79 1161.75 a4 4 0 1 0 8 0 a4 4 0 1 0 -8 0zM994.79 1121.75 a4 4 0 1 0 8 0 a4 4 0 1 0 -8 0zM1029.43 1341.75 a4 4 0 1 0 8 0 a4 4 0 1 0 -8 0zM1064.07 1361.75 a4 4 0 1 0 8 0 a4 4 0 1 0 -8 0zM1064.07 1401.75 a4 4 0 1 0 8 0 a4 4 0 1 0 -8 0zM1029.43 1421.75 a4 4 0 1 0 8 0 a4 4 0 1 0 -8 0zM994.79 1401.75 a4 4 0 1 0 8 0 a4 4 0 1 0 -8 0zM994.79 1361.75 a4 4 0 1 0 8 0 a4 4 0 1 0 -8 0zM1029.43 1461.75 a4 4 0 1 0 8 0 a4 4 0 1 0 -8 0zM994.79 1481.75 a4 4 0 1 0 8 0 a4 4 0 1 0 -8 0zM1029.43 2541.75 a4 4 0 1 0 8 0 a4 4 0 1 0 -8 0zM1064.07 2561.75 a4 4 0 1 0 8 0 a4 4 0 1 0 -8 0zM1064.07 2601.75 a4 4 0 1 0 8 0 a4 4 0 1 0 -8 0zM1029.43 2621.75 a4 4 0 1 0 8 0 a4 4 0 1 0 -8 0zM1098.71 461.75 a4 4 0 1 0 8 0 a4 4 0 1 0 -8 0zM1098.71 501.75 a4 4 0 1 0 8 0 a4 4 0 1 0 -8 0zM1064.07 521.75 a4 4 0 1 0 8 0 a4 4 0 1 0 -8 0zM1029.43 501.75 a4 4 0 1 0 8 0 a4 4 0 1 0 -8 0zM1098.71 981.75 a4 4 0 1 0 8 0 a4 4 0 1 0 -8 0zM1133.35 1001.75 a4 4 0 1 0 8 0 a4 4 0 1 0 -8 0zM1133.35 1041.75 a4 4 0 1 0 8 0 a4 4 0 1 0 -8 0zM1098.71 1061.75 a4 4 0 1 0 8 0 a4 4 0 1 0 -8 0zM1064.07 1041.75 a4 4 0 1 0 8 0 a4 4 0 1 0 -8 0zM1064.07 1001.75 a4 4 0 1 0 8 0 a4 4 0 1 0 -8 0zM1098.71 1181.75 a4 4 0 1 0 8 0 a4 4 0 1 0 -8 0zM1098.71 1221.75 a4 4 0 1 0 8 0 a4 4 0 1 0 -8 0zM1064.07 1241.75 a4 4 0 1 0 8 0 a4 4 0 1 0 -8 0zM1029.43 1221.75 a4 4 0 1 0 8 0 a4 4 0 1 0 -8 0zM1098.71 1421.75 a4 4 0 1 0 8 0 a4 4 0 1 0 -8 0zM1098.71 1461.75 a4 4 0 1 0 8 0 a4 4 0 1 0 -8 0zM1064.07 1481.75 a4 4 0 1 0 8 0 a4 4 0 1 0 -8 0zM1098.71 1581.75 a4 4 0 1 0 8 0 a4 4 0 1 0 -8 0zM1133.35 1601.75 a4 4 0 1 0 8 0 a4 4 0 1 0 -8 0zM1133.35 1641.75 a4 4 0 1 0 8 0 a4 4 0 1 0 -8 0zM1098.71 1661.75 a4 4 0 1 0 8 0 a4 4 0 1 0 -8 0zM1064.07 1641.75 a4 4 0 1 0 8 0 a4 4 0 1 0 -8 0zM1064.07 1601.75 a4 4 0 1 0 8 0 a4 4 0 1 0 -8 0zM1064.07 1881.75 a4 4 0 1 0 8 0 a4 4 0 1 0 -8 0zM1098.71 1901.75 a4 4 0 1 0 8 0 a4 4 0 1 0 -8 0zM1098.71 1941.75 a4 4 0 1 0 8 0 a4 4 0 1 0 -8 0zM1064.07 1961.75 a4 4 0 1 0 8 0 a4 4 0 1 0 -8 0zM1029.43 1941.75 a4 4 0 1 0 8 0 a4 4 0 1 0 -8 0zM1029.43 1901.75 a4 4 0 1 0 8 0 a4 4 0 1 0 -8 0zM1133.35 321.75 a4 4 0 1 0 8 0 a4 4 0 1 0 -8 0zM1168 341.75 a4 4 0 1 0 8 0 a4 4 0 1 0 -8 0zM1168 381.75 a4 4 0 1 0 8 0 a4 4 0 1 0 -8 0zM1133.35 401.75 a4 4 0 1 0 8 0 a4 4 0 1 0 -8 0zM1098.71 381.75 a4 4 0 1 0 8 0 a4 4 0 1 0 -8 0zM1098.71 341.75 a4 4 0 1 0 8 0 a4 4 0 1 0 -8 0zM1133.35 801.75 a4 4 0 1 0 8 0 a4 4 0 1 0 -8 0zM1168 821.75 a4 4 0 1 0 8 0 a4 4 0 1 0 -8 0zM1168 861.75 a4 4 0 1 0 8 0 a4 4 0 1 0 -8 0zM1133.35 881.75 a4 4 0 1 0 8 0 a4 4 0 1 0 -8 0zM1098.71 861.75 a4 4 0 1 0 8 0 a4 4 0 1 0 -8 0zM1098.71 821.75 a4 4 0 1 0 8 0 a4 4 0 1 0 -8 0zM1168 981.75 a4 4 0 1 0 8 0 a4 4 0 1 0 -8 0zM1202.64 1001.75 a4 4 0 1 0 8 0 a4 4 0 1 0 -8 0zM1202.64 1041.75 a4 4 0 1 0 8 0 a4 4 0 1 0 -8 0zM1168 1061.75 a4 4 0 1 0 8 0 a4 4 0 1 0 -8 0zM1133.35 2001.75 a4 4 0 1 0 8 0 a4 4 0 1 0 -8 0zM1168 2021.75 a4 4 0 1 0 8 0 a4 4 0 1 0 -8 0zM1168 2061.75 a4 4 0 1 0 8 0 a4 4 0 1 0 -8 0zM1133.35 2081.75 a4 4 0 1 0 8 0 a4 4 0 1 0 -8 0zM1098.71 2061.75 a4 4 0 1 0 8 0 a4 4 0 1 0 -8 0zM1098.71 2021.75 a4 4 0 1 0 8 0 a4 4 0 1 0 -8 0zM1237.28 141.75 a4 4 0 1 0 8 0 a4 4 0 1 0 -8 0zM1271.92 161.75 a4 4 0 1 0 8 0 a4 4 0 1 0 -8 0zM1271.92 201.75 a4 4 0 1 0 8 0 a4 4 0 1 0 -8 0zM1237.28 221.75 a4 4 0 1 0 8 0 a4 4 0 1 0 -8 0zM1202.64 201.75 a4 4 0 1 0 8 0 a4 4 0 1 0 -8 0zM1202.64 161.75 a4 4 0 1 0 8 0 a4 4 0 1 0 -8 0zM1202.64 1401.75 a4 4 0 1 0 8 0 a4 4 0 1 0 -8 0zM1237.28 1421.75 a4 4 0 1 0 8 0 a4 4 0 1 0 -8 0zM1237.28 1461.75 a4 4 0 1 0 8 0 a4 4 0 1 0 -8 0zM1202.64 1481.75 a4 4 0 1 0 8 0 a4 4 0 1 0 -8 0zM1168 1461.75 a4 4 0 1 0 8 0 a4 4 0 1 0 -8 0zM1168 1421.75 a4 4 0 1 0 8 0 a4 4 0 1 0 -8 0zM1202.64 2241.75 a4 4 0 1 0 8 0 a4 4 0 1 0 -8 0zM1237.28 2261.75 a4 4 0 1 0 8 0 a4 4 0 1 0 -8 0zM1237.28 2301.75 a4 4 0 1 0 8 0 a4 4 0 1 0 -8 0zM1202.64 2321.75 a4 4 0 1 0 8 0 a4 4 0 1 0 -8 0zM1168 2301.75 a4 4 0 1 0 8 0 a4 4 0 1 0 -8 0zM1168 2261.75 a4 4 0 1 0 8 0 a4 4 0 1 0 -8 0zM1237.28 2421.75 a4 4 0 1 0 8 0 a4 4 0 1 0 -8 0zM1271.92 2441.75 a4 4 0 1 0 8 0 a4 4 0 1 0 -8 0zM1271.92 2481.75 a4 4 0 1 0 8 0 a4 4 0 1 0 -8 0zM1237.28 2501.75 a4 4 0 1 0 8 0 a4 4 0 1 0 -8 0zM1202.64 2481.75 a4 4 0 1 0 8 0 a4 4 0 1 0 -8 0zM1202.64 2441.75 a4 4 0 1 0 8 0 a4 4 0 1 0 -8 0zM1271.92 -38.25 a4 4 0 1 0 8 0 a4 4 0 1 0 -8 0zM1306.56 -18.25 a4 4 0 1 0 8 0 a4 4 0 1 0 -8 0zM1306.56 21.75 a4 4 0 1 0 8 0 a4 4 0 1 0 -8 0zM1271.92 41.75 a4 4 0 1 0 8 0 a4 4 0 1 0 -8 0zM1237.28 21.75 a4 4 0 1 0 8 0 a4 4 0 1 0 -8 0zM1237.28 -18.25 a4 4 0 1 0 8 0 a4 4 0 1 0 -8 0zM1271.92 441.75 a4 4 0 1 0 8 0 a4 4 0 1 0 -8 0zM1306.56 461.75 a4 4 0 1 0 8 0 a4 4 0 1 0 -8 0zM1306.56 501.75 a4 4 0 1 0 8 0 a4 4 0 1 0 -8 0zM1271.92 521.75 a4 4 0 1 0 8 0 a4 4 0 1 0 -8 0zM1237.28 501.75 a4 4 0 1 0 8 0 a4 4 0 1 0 -8 0zM1237.28 461.75 a4 4 0 1 0 8 0 a4 4 0 1 0 -8 0zM1306.56 1101.75 a4 4 0 1 0 8 0 a4 4 0 1 0 -8 0zM1341.21 1121.75 a4 4 0 1 0 8 0 a4 4 0 1 0 -8 0zM1341.21 1161.75 a4 4 0 1 0 8 0 a4 4 0 1 0 -8 0zM1306.56 1181.75 a4 4 0 1 0 8 0 a4 4 0 1 0 -8 0zM1271.92 1161.75 a4 4 0 1 0 8 0 a4 4 0 1 0 -8 0zM1271.92 1121.75 a4 4 0 1 0 8 0 a4 4 0 1 0 -8 0zM1306.56 1221.75 a4 4 0 1 0 8 0 a4 4 0 1 0 -8 0zM1271.92 1241.75 a4 4 0 1 0 8 0 a4 4 0 1 0 -8 0zM1237.28 1221.75 a4 4 0 1 0 8 0 a4 4 0 1 0 -8 0zM1237.28 1181.75 a4 4 0 1 0 8 0 a4 4 0 1 0 -8 0zM1306.56 1461.75 a4 4 0 1 0 8 0 a4 4 0 1 0 -8 0zM1341.21 1481.75 a4 4 0 1 0 8 0 a4 4 0 1 0 -8 0zM1341.21 1521.75 a4 4 0 1 0 8 0 a4 4 0 1 0 -8 0zM1306.56 1541.75 a4 4 0 1 0 8 0 a4 4 0 1 0 -8 0zM1271.92 1521.75 a4 4 0 1 0 8 0 a4 4 0 1 0 -8 0zM1271.92 1481.75 a4 4 0 1 0 8 0 a4 4 0 1 0 -8 0zM1306.56 2181.75 a4 4 0 1 0 8 0 a4 4 0 1 0 -8 0zM1341.21 2201.75 a4 4 0 1 0 8 0 a4 4 0 1 0 -8 0zM1341.21 2241.75 a4 4 0 1 0 8 0 a4 4 0 1 0 -8 0zM1306.56 2261.75 a4 4 0 1 0 8 0 a4 4 0 1 0 -8 0zM1271.92 2241.75 a4 4 0 1 0 8 0 a4 4 0 1 0 -8 0zM1271.92 2201.75 a4 4 0 1 0 8 0 a4 4 0 1 0 -8 0z" fill="rgba(7, 42, 77, 1)"></path><path d="M30.38 134.52L80.61 163.52L80.61 221.52L30.38 250.52L-19.85 221.52L-19.85 163.52zM30.38 656.52L80.61 685.52L80.61 743.52L30.38 772.52L-19.85 743.52L-19.85 685.52zM80.61 743.52L130.84 772.52L130.84 830.52L80.61 859.52L30.38 830.52L30.38 772.52zM80.61 1265.52L130.84 1294.52L130.84 1352.52L80.61 1381.52L30.38 1352.52L30.38 1294.52zM30.38 1526.52L80.61 1555.52L80.61 1613.52L30.38 1642.52L-19.85 1613.52L-19.85 1555.52zM80.61 2309.52L130.84 2338.52L130.84 2396.52L80.61 2425.52L30.38 2396.52L30.38 2338.52zM130.84 -39.48L181.07 -10.48L181.07 47.52L130.84 76.52L80.61 47.52L80.61 -10.48zM181.07 221.52L231.3 250.52L231.3 308.52L181.07 337.52L130.84 308.52L130.84 250.52zM181.07 395.52L231.3 424.52L231.3 482.52L181.07 511.52L130.84 482.52L130.84 424.52zM130.84 1178.52L181.07 1207.52L181.07 1265.52L130.84 1294.52L80.61 1265.52L80.61 1207.52zM130.84 1874.52L181.07 1903.52L181.07 1961.52L130.84 1990.52L80.61 1961.52L80.61 1903.52zM181.07 1961.52L231.3 1990.52L231.3 2048.52L181.07 2077.52L130.84 2048.52L130.84 1990.52zM181.07 2135.52L231.3 2164.52L231.3 2222.52L181.07 2251.52L130.84 2222.52L130.84 2164.52zM130.84 2222.52L181.07 2251.52L181.07 2309.52L130.84 2338.52L80.61 2309.52L80.61 2251.52zM181.07 2309.52L231.3 2338.52L231.3 2396.52L181.07 2425.52L130.84 2396.52L130.84 2338.52zM130.84 2396.52L181.07 2425.52L181.07 2483.52L130.84 2512.52L80.61 2483.52L80.61 2425.52zM231.3 134.52L281.53 163.52L281.53 221.52L231.3 250.52L181.07 221.52L181.07 163.52zM231.3 1004.52L281.53 1033.52L281.53 1091.52L231.3 1120.52L181.07 1091.52L181.07 1033.52zM231.3 1352.52L281.53 1381.52L281.53 1439.52L231.3 1468.52L181.07 1439.52L181.07 1381.52zM281.53 1439.52L331.77 1468.52L331.77 1526.52L281.53 1555.52L231.3 1526.52L231.3 1468.52zM281.53 1613.52L331.77 1642.52L331.77 1700.52L281.53 1729.52L231.3 1700.52L231.3 1642.52zM281.53 2309.52L331.77 2338.52L331.77 2396.52L281.53 2425.52L231.3 2396.52L231.3 2338.52zM281.53 2483.52L331.77 2512.52L331.77 2570.52L281.53 2599.52L231.3 2570.52L231.3 2512.52zM231.3 2570.52L281.53 2599.52L281.53 2657.52L231.3 2686.52L181.07 2657.52L181.07 2599.52zM331.77 -39.48L382 -10.48L382 47.52L331.77 76.52L281.53 47.52L281.53 -10.48zM331.77 134.52L382 163.52L382 221.52L331.77 250.52L281.53 221.52L281.53 163.52zM331.77 830.52L382 859.52L382 917.52L331.77 946.52L281.53 917.52L281.53 859.52zM382 917.52L432.23 946.52L432.23 1004.52L382 1033.52L331.77 1004.52L331.77 946.52zM331.77 1004.52L382 1033.52L382 1091.52L331.77 1120.52L281.53 1091.52L281.53 1033.52zM331.77 1178.52L382 1207.52L382 1265.52L331.77 1294.52L281.53 1265.52L281.53 1207.52zM382 1265.52L432.23 1294.52L432.23 1352.52L382 1381.52L331.77 1352.52L331.77 1294.52zM382 1439.52L432.23 1468.52L432.23 1526.52L382 1555.52L331.77 1526.52L331.77 1468.52zM382 2135.52L432.23 2164.52L432.23 2222.52L382 2251.52L331.77 2222.52L331.77 2164.52zM331.77 2222.52L382 2251.52L382 2309.52L331.77 2338.52L281.53 2309.52L281.53 2251.52zM482.46 221.52L532.69 250.52L532.69 308.52L482.46 337.52L432.23 308.52L432.23 250.52zM432.23 482.52L482.46 511.52L482.46 569.52L432.23 598.52L382 569.52L382 511.52zM432.23 656.52L482.46 685.52L482.46 743.52L432.23 772.52L382 743.52L382 685.52zM482.46 743.52L532.69 772.52L532.69 830.52L482.46 859.52L432.23 830.52L432.23 772.52zM432.23 830.52L482.46 859.52L482.46 917.52L432.23 946.52L382 917.52L382 859.52zM432.23 1352.52L482.46 1381.52L482.46 1439.52L432.23 1468.52L382 1439.52L382 1381.52zM482.46 1439.52L532.69 1468.52L532.69 1526.52L482.46 1555.52L432.23 1526.52L432.23 1468.52zM432.23 1526.52L482.46 1555.52L482.46 1613.52L432.23 1642.52L382 1613.52L382 1555.52zM432.23 1874.52L482.46 1903.52L482.46 1961.52L432.23 1990.52L382 1961.52L382 1903.52zM482.46 2483.52L532.69 2512.52L532.69 2570.52L482.46 2599.52L432.23 2570.52L432.23 2512.52zM532.69 -39.48L582.92 -10.48L582.92 47.52L532.69 76.52L482.46 47.52L482.46 -10.48zM582.92 47.52L633.15 76.52L633.15 134.52L582.92 163.52L532.69 134.52L532.69 76.52zM532.69 308.52L582.92 337.52L582.92 395.52L532.69 424.52L482.46 395.52L482.46 337.52zM532.69 1004.52L582.92 1033.52L582.92 1091.52L532.69 1120.52L482.46 1091.52L482.46 1033.52zM582.92 1091.52L633.15 1120.52L633.15 1178.52L582.92 1207.52L532.69 1178.52L532.69 1120.52zM532.69 1526.52L582.92 1555.52L582.92 1613.52L532.69 1642.52L482.46 1613.52L482.46 1555.52zM532.69 1700.52L582.92 1729.52L582.92 1787.52L532.69 1816.52L482.46 1787.52L482.46 1729.52zM532.69 1874.52L582.92 1903.52L582.92 1961.52L532.69 1990.52L482.46 1961.52L482.46 1903.52zM582.92 2309.52L633.15 2338.52L633.15 2396.52L582.92 2425.52L532.69 2396.52L532.69 2338.52zM633.15 482.52L683.38 511.52L683.38 569.52L633.15 598.52L582.92 569.52L582.92 511.52zM683.38 917.52L733.61 946.52L733.61 1004.52L683.38 1033.52L633.15 1004.52L633.15 946.52zM683.38 1265.52L733.61 1294.52L733.61 1352.52L683.38 1381.52L633.15 1352.52L633.15 1294.52zM633.15 1352.52L683.38 1381.52L683.38 1439.52L633.15 1468.52L582.92 1439.52L582.92 1381.52zM633.15 1526.52L683.38 1555.52L683.38 1613.52L633.15 1642.52L582.92 1613.52L582.92 1555.52zM683.38 2135.52L733.61 2164.52L733.61 2222.52L683.38 2251.52L633.15 2222.52L633.15 2164.52zM683.38 2483.52L733.61 2512.52L733.61 2570.52L683.38 2599.52L633.15 2570.52L633.15 2512.52zM733.61 134.52L783.84 163.52L783.84 221.52L733.61 250.52L683.38 221.52L683.38 163.52zM783.84 917.52L834.07 946.52L834.07 1004.52L783.84 1033.52L733.61 1004.52L733.61 946.52zM783.84 1091.52L834.07 1120.52L834.07 1178.52L783.84 1207.52L733.61 1178.52L733.61 1120.52zM733.61 1352.52L783.84 1381.52L783.84 1439.52L733.61 1468.52L683.38 1439.52L683.38 1381.52zM783.84 2309.52L834.07 2338.52L834.07 2396.52L783.84 2425.52L733.61 2396.52L733.61 2338.52zM733.61 2396.52L783.84 2425.52L783.84 2483.52L733.61 2512.52L683.38 2483.52L683.38 2425.52zM884.31 47.52L934.54 76.52L934.54 134.52L884.31 163.52L834.07 134.52L834.07 76.52zM834.07 482.52L884.31 511.52L884.31 569.52L834.07 598.52L783.84 569.52L783.84 511.52zM834.07 1004.52L884.31 1033.52L884.31 1091.52L834.07 1120.52L783.84 1091.52L783.84 1033.52zM834.07 1178.52L884.31 1207.52L884.31 1265.52L834.07 1294.52L783.84 1265.52L783.84 1207.52zM884.31 1439.52L934.54 1468.52L934.54 1526.52L884.31 1555.52L834.07 1526.52L834.07 1468.52zM834.07 1874.52L884.31 1903.52L884.31 1961.52L834.07 1990.52L783.84 1961.52L783.84 1903.52zM834.07 2048.52L884.31 2077.52L884.31 2135.52L834.07 2164.52L783.84 2135.52L783.84 2077.52zM934.54 -39.48L984.77 -10.48L984.77 47.52L934.54 76.52L884.31 47.52L884.31 -10.48zM934.54 308.52L984.77 337.52L984.77 395.52L934.54 424.52L884.31 395.52L884.31 337.52zM934.54 482.52L984.77 511.52L984.77 569.52L934.54 598.52L884.31 569.52L884.31 511.52zM984.77 569.52L1035 598.52L1035 656.52L984.77 685.52L934.54 656.52L934.54 598.52zM934.54 830.52L984.77 859.52L984.77 917.52L934.54 946.52L884.31 917.52L884.31 859.52zM984.77 917.52L1035 946.52L1035 1004.52L984.77 1033.52L934.54 1004.52L934.54 946.52zM934.54 1178.52L984.77 1207.52L984.77 1265.52L934.54 1294.52L884.31 1265.52L884.31 1207.52zM984.77 1613.52L1035 1642.52L1035 1700.52L984.77 1729.52L934.54 1700.52L934.54 1642.52zM934.54 1700.52L984.77 1729.52L984.77 1787.52L934.54 1816.52L884.31 1787.52L884.31 1729.52zM934.54 2048.52L984.77 2077.52L984.77 2135.52L934.54 2164.52L884.31 2135.52L884.31 2077.52zM934.54 2570.52L984.77 2599.52L984.77 2657.52L934.54 2686.52L884.31 2657.52L884.31 2599.52zM1085.23 569.52L1135.46 598.52L1135.46 656.52L1085.23 685.52L1035 656.52L1035 598.52zM1085.23 743.52L1135.46 772.52L1135.46 830.52L1085.23 859.52L1035 830.52L1035 772.52zM1085.23 1787.52L1135.46 1816.52L1135.46 1874.52L1085.23 1903.52L1035 1874.52L1035 1816.52zM1035 1874.52L1085.23 1903.52L1085.23 1961.52L1035 1990.52L984.77 1961.52L984.77 1903.52zM1035 2048.52L1085.23 2077.52L1085.23 2135.52L1035 2164.52L984.77 2135.52L984.77 2077.52zM1035 2570.52L1085.23 2599.52L1085.23 2657.52L1035 2686.52L984.77 2657.52L984.77 2599.52zM1135.46 308.52L1185.69 337.52L1185.69 395.52L1135.46 424.52L1085.23 395.52L1085.23 337.52zM1185.69 395.52L1235.92 424.52L1235.92 482.52L1185.69 511.52L1135.46 482.52L1135.46 424.52zM1185.69 569.52L1235.92 598.52L1235.92 656.52L1185.69 685.52L1135.46 656.52L1135.46 598.52zM1185.69 743.52L1235.92 772.52L1235.92 830.52L1185.69 859.52L1135.46 830.52L1135.46 772.52zM1135.46 1004.52L1185.69 1033.52L1185.69 1091.52L1135.46 1120.52L1085.23 1091.52L1085.23 1033.52zM1185.69 1091.52L1235.92 1120.52L1235.92 1178.52L1185.69 1207.52L1135.46 1178.52L1135.46 1120.52zM1135.46 1352.52L1185.69 1381.52L1185.69 1439.52L1135.46 1468.52L1085.23 1439.52L1085.23 1381.52zM1135.46 1526.52L1185.69 1555.52L1185.69 1613.52L1135.46 1642.52L1085.23 1613.52L1085.23 1555.52zM1135.46 2222.52L1185.69 2251.52L1185.69 2309.52L1135.46 2338.52L1085.23 2309.52L1085.23 2251.52zM1185.69 2309.52L1235.92 2338.52L1235.92 2396.52L1185.69 2425.52L1135.46 2396.52L1135.46 2338.52zM1185.69 2483.52L1235.92 2512.52L1235.92 2570.52L1185.69 2599.52L1135.46 2570.52L1135.46 2512.52zM1135.46 2570.52L1185.69 2599.52L1185.69 2657.52L1135.46 2686.52L1085.23 2657.52L1085.23 2599.52zM1235.92 134.52L1286.15 163.52L1286.15 221.52L1235.92 250.52L1185.69 221.52L1185.69 163.52zM1235.92 308.52L1286.15 337.52L1286.15 395.52L1235.92 424.52L1185.69 395.52L1185.69 337.52zM1235.92 482.52L1286.15 511.52L1286.15 569.52L1235.92 598.52L1185.69 569.52L1185.69 511.52zM1235.92 656.52L1286.15 685.52L1286.15 743.52L1235.92 772.52L1185.69 743.52L1185.69 685.52zM1286.15 1265.52L1336.38 1294.52L1336.38 1352.52L1286.15 1381.52L1235.92 1352.52L1235.92 1294.52zM1235.92 1352.52L1286.15 1381.52L1286.15 1439.52L1235.92 1468.52L1185.69 1439.52L1185.69 1381.52zM1235.92 1526.52L1286.15 1555.52L1286.15 1613.52L1235.92 1642.52L1185.69 1613.52L1185.69 1555.52zM1235.92 1700.52L1286.15 1729.52L1286.15 1787.52L1235.92 1816.52L1185.69 1787.52L1185.69 1729.52zM1286.15 2135.52L1336.38 2164.52L1336.38 2222.52L1286.15 2251.52L1235.92 2222.52L1235.92 2164.52z" stroke="rgba(64, 120, 178, 0.93)" stroke-width="2"></path></g><defs><mask id="SvgjsMask1706"><rect width="1300" height="2600" fill="#ffffff"></rect></mask><linearGradient x1="-25%" y1="12.5%" x2="125%" y2="87.5%" gradientUnits="userSpaceOnUse" id="SvgjsLinearGradient1707"><stop stop-color="rgba(14, 42, 71, 1)" offset="0"></stop><stop stop-color="rgba(151, 31, 130, 1)" offset="1"></stop></linearGradient></defs></svg>